inDegrees=no
num_controls=7
num_derivatives=13
num_iterations=164
num_multipliers=7
num_parameters=0
num_slacks=7
num_states=26
objective=0.505441
objective_accelerations=0.041773
objective_balance=0.004009
objective_effort=0.032232
objective_height=0.315314
objective_ligament=0.112113
solver_duration=2479.247581
status=Solve_Succeeded
success=true
DataType=double
version=3
OpenSimVersion=4.5
endheader
time	/jointset/ground_pelvis/pelvis_tilt/value	/jointset/ground_pelvis/pelvis_tx/value	/jointset/ground_pelvis/pelvis_ty/value	/jointset/hip_l/hip_flexion_l/value	/jointset/hip_l/hip_adduction_l/value	/jointset/hip_l/hip_rotation_l/value	/jointset/back/lumbar_extension/value	/jointset/patellofemoral_l/patellar_flexion_l/value	/jointset/knee_l/knee_flexion_l/value	/jointset/knee_l/knee_adduction_l/value	/jointset/knee_l/knee_rotation_l/value	/jointset/ankle_l/ankle_angle_l/value	/jointset/subtalar_l/subtalar_angle_l/value	/jointset/ground_pelvis/pelvis_tilt/speed	/jointset/ground_pelvis/pelvis_tx/speed	/jointset/ground_pelvis/pelvis_ty/speed	/jointset/hip_l/hip_flexion_l/speed	/jointset/hip_l/hip_adduction_l/speed	/jointset/hip_l/hip_rotation_l/speed	/jointset/back/lumbar_extension/speed	/jointset/patellofemoral_l/patellar_flexion_l/speed	/jointset/knee_l/knee_flexion_l/speed	/jointset/knee_l/knee_adduction_l/speed	/jointset/knee_l/knee_rotation_l/speed	/jointset/ankle_l/ankle_angle_l/speed	/jointset/subtalar_l/subtalar_angle_l/speed	/forceset/tau_hip_flexion_l	/forceset/tau_hip_adduction_l	/forceset/tau_hip_rotation_l	/forceset/tau_knee_flexion_l	/forceset/tau_ankle_angle_l	/forceset/tau_subtalar_angle_l	/forceset/tau_lumbar_extension	lambda_cid13_p0	lambda_cid13_p1	lambda_cid13_p2	lambda_cid13_p3	lambda_cid13_p4	lambda_cid13_p5	lambda_cid14_p0	/jointset/ground_pelvis/pelvis_tilt/accel	/jointset/ground_pelvis/pelvis_tx/accel	/jointset/ground_pelvis/pelvis_ty/accel	/jointset/hip_l/hip_flexion_l/accel	/jointset/hip_l/hip_adduction_l/accel	/jointset/hip_l/hip_rotation_l/accel	/jointset/back/lumbar_extension/accel	/jointset/patellofemoral_l/patellar_flexion_l/accel	/jointset/knee_l/knee_flexion_l/accel	/jointset/knee_l/knee_adduction_l/accel	/jointset/knee_l/knee_rotation_l/accel	/jointset/ankle_l/ankle_angle_l/accel	/jointset/subtalar_l/subtalar_angle_l/accel	gamma_cid13_p0	gamma_cid13_p1	gamma_cid13_p2	gamma_cid13_p3	gamma_cid13_p4	gamma_cid13_p5	gamma_cid14_p0
0	-0.01703244511964214	0.04725919950612761	0.9233314785052508	0.3085816938045678	-0.2606070915619342	-0.3178601029910315	-0.3879492264334186	0.2499269421184902	0.2499269421184919	-0.1009282891338201	-0.1745306652392535	-0.0008036623358878681	0.03708636087711776	0	0	0	0	0	0	0	0	0	0	0	0	0	0.104967864435406	-0.03241314789023052	-0.01634820578203234	-0.2913630643945244	0.2552150589011974	-0.04828064568871836	-0.01816593560371497	35.94575590174276	13.8089812382488	-1.667271221313536	9.065861994705804	-629.5528023561487	-52.10907705814351	-22.93275699182675	-2.028420159814847	-2.154397520085318	-0.9152862235408611	9.339482115072393	-0.3575879364172235	2.180563393276131	-6.927694733141736	7.182218222344993	7.182218222345112	1.682651006160498	-0.01480650549307134	0.338549864194807	-0.2757352028979912	-5.402518137353608e-09	7.872612279758306e-08	-5.426075520661852e-08	2.983120373380462e-08	-5.584503057392199e-08	1.517887932061311e-08	1.778313847373222e-08
0.01	-0.01712921494924328	0.04715059072409745	0.9232862939363942	0.3090408551173115	-0.2606264016436396	-0.3177501194357235	-0.3882985336200321	0.2502806159625073	0.2502806159625058	-0.1008493059310834	-0.1745298830213269	-0.0007904166238123605	0.03706969369982991	-0.01921603961909522	-0.02182768963858131	-0.009039343953865384	0.09166126532620901	-0.00396308829852891	0.02197341221434956	-0.0698070110692585	0.07053360471328597	0.07053360471326997	0.01550268606794628	0.0001286214998833828	0.002389271846333029	-0.003535714009947876	0.09555585667789575	-0.03479250116742122	-0.01534439092928937	-0.2746021636309292	0.2277233436024391	-0.03670782116629782	-0.01221656373486482	27.60325852772079	9.956494813185236	-0.7251202945140902	15.1569745932292	-629.511441938757	-59.09512222590654	-22.93731848804762	-1.847504680779774	-2.212838704512701	-0.8986341777067428	9.053799864627722	-0.4308379230803113	2.202249082229776	-6.999040355886809	6.958753425540184	6.958753425537749	1.439994318697832	0.02251018233222647	0.1501355157846463	-0.4228369838044941	1.515903093186928e-09	1.065273642608391e-07	-1.075752793909893e-08	1.648467302953864e-08	-3.09595688970111e-09	3.041457066909367e-08	1.445200260390367e-08
0.02	-0.01741400693859864	0.04682052824192717	0.9231506407887193	0.3104114993079727	-0.2606883763376363	-0.3174210979689339	-0.3893442781297496	0.2513335902196087	0.251333590219609	-0.1006241124853408	-0.1745286518474873	-0.0007610742590885546	0.03701159988569029	-0.03760443195112588	-0.04429074002802545	-0.01809371576363702	0.1822965755816962	-0.008532922457453926	0.04380758229731883	-0.1392874646212664	0.1398600826153628	0.139860082615337	0.02924204859933953	8.979118389246737e-05	0.003219330529947999	-0.008285327370349548	0.08614384892048799	-0.03717185444457895	-0.01434057607657938	-0.2578412628672609	0.2002316283037198	-0.02513499664382779	-0.006267191865965775	19.32225120562584	6.095971026202069	0.21519552070672	21.22716192752595	-628.5079747479665	-65.99502553067308	-22.95091878673397	-1.862890702401914	-2.28146967025793	-0.9182917947221145	9.134291100928047	-0.4789371084964442	2.152714967000053	-6.862383229691631	6.940792860103153	6.94079286010452	1.329986298849887	-0.04829686866795647	0.02670723165113094	-0.5185150729887763	8.434324323727463e-09	1.343286057240951e-07	3.274569932842065e-08	3.138142325272666e-09	4.965311679451978e-08	4.565026201757424e-08	1.112086673407512e-08
0.03	-0.01787920387266286	0.04626666558103133	0.9229247481753634	0.3126783566911936	-0.2607983602699229	-0.316875184166947	-0.3910761357680134	0.2530723844336296	0.2530723844336312	-0.1002693731915922	-0.1745282165940086	-0.0007264974995517868	0.03690246840045161	-0.05533638121884055	-0.0661877902717953	-0.02704604295136843	0.2703789758606812	-0.01350264734480813	0.06528912175650821	-0.2063561975749047	0.2075706127782083	0.2075706127781836	0.0414932134121571	1.473456043945193e-05	0.003916780772791166	-0.01349824796351771	0.08097802309574799	-0.03298984511376562	-0.01431065040807408	-0.258847544994536	0.2083735982411075	-0.02880666859172417	-0.0001206752560784505	21.74169065957861	7.330028904559671	-0.05359652105917923	16.90791484079602	-631.0424893502644	-62.68179051978657	-22.97323598930768	-1.713563928295976	-2.099721845995903	-0.8778784436336016	8.540823550508613	-0.5118290132344269	2.132965402470159	-6.519938509786758	6.636958772009041	6.636958772008259	1.140815455306646	0.01551350667757483	0.1243832778104029	-0.5162978063391384	-1.262112092008484e-08	9.981738665430971e-08	6.265496084392137e-08	2.594552417958627e-08	-6.199327517768275e-08	1.289008820034001e-08	5.57767211487799e-09
0.04	-0.01851876367726668	0.04550265258878523	0.9226104972375632	0.3158051598890364	-0.2609592092179617	-0.3161170365769524	-0.3934568447721289	0.2554784390848084	0.2554784390848138	-0.09979849547315132	-0.1745280071935899	-0.000678322366145148	0.03674248425850956	-0.0724770060601618	-0.0863208062980742	-0.03576538065252027	0.3542857385046371	-0.01870592560735137	0.08625433989937181	-0.2690577377920093	0.2733121700464043	0.2733121700463765	0.05246973353733254	4.462057144754022e-05	0.005939005304012829	-0.01845585871101973	0.07581219727105674	-0.02880783578293252	-0.01428072473957326	-0.259853827121776	0.2165155681785161	-0.03247834053959203	0.006025841353831589	24.21733658901167	8.556096905968369	-0.3232290282125219	12.5645521638233	-632.7078782777164	-59.28567667773274	-23.00367209163886	-1.744625817123192	-1.928662826759797	-0.8716938974062057	8.29916357392225	-0.5256477835342463	2.04945070373489	-5.988944682384891	6.546998281173226	6.546998281173774	1.075057361321456	-0.02730834177574981	0.2916620893267503	-0.4674531038555782	-3.425334691594566e-08	6.4021374583843e-08	9.228393440577223e-08	4.949834752995306e-08	-1.770292643799147e-07	-2.085969108422856e-08	-1.113196306901273e-11
0.05	-0.01932726198426899	0.04454451635210275	0.9222097694425041	0.3197534488416161	-0.2611733220414239	-0.3151520926489966	-0.396446187267487	0.2585331321976765	0.2585331321976714	-0.09922410374781747	-0.1745276759793083	-0.0006051077945757095	0.03653346324802727	-0.08914160462543433	-0.1051715367148677	-0.04438046702215713	0.4349480622375164	-0.02416820292918191	0.1066752931138645	-0.3284595333018578	0.337373207254803	0.3373732072547578	0.06217780465149499	2.571298821637996e-05	0.008735083013648684	-0.02339014041818595	0.07077740158715398	-0.02915921084476188	-0.01398569296435214	-0.2575253861872341	0.2151589391311994	-0.03026331897951779	0.01057614263699074	23.9515559150751	7.645899309036887	-0.1841157939678997	11.43774274424816	-632.6029643323485	-60.40607158334542	-23.04150711557763	-1.615217437268357	-1.843032410816237	-0.8564956416249571	7.886166111043373	-0.5642680721849613	2.029532007828816	-5.863112788673381	6.297669697113833	6.297669697110743	0.8840776216006041	0.01144665529922549	0.2782567580668269	-0.5127055674861276	-4.277372988927402e-08	1.342715153830714e-08	1.146470053904349e-07	5.306037296950772e-08	-2.207934391700019e-07	-3.734457070833797e-08	-8.20865598259153e-09
